<?xml version="1.0" standalone="no"?>
<!DOCTYPE svg PUBLIC "-//W3C//DTD SVG 20010904//EN"
 "http://www.w3.org/TR/2001/REC-SVG-20010904/DTD/svg10.dtd">
<svg version="1.0" xmlns="http://www.w3.org/2000/svg"
 width="138.000000pt" height="138.000000pt" viewBox="0 0 138.000000 138.000000"
 preserveAspectRatio="xMidYMid meet">
<metadata>
Created by potrace 1.14, written by Peter Selinger 2001-2017
</metadata>
<g transform="translate(0.000000,138.000000) scale(0.100000,-0.100000)"
fill="#000000" stroke="none">
<path d="M171 1021 c-1 -8 -7 -11 -17 -7 -8 3 -12 2 -9 -4 5 -9 -6 -14 -25
-12 -3 0 -7 -9 -7 -20 -1 -11 -10 -27 -20 -35 -10 -8 -13 -12 -6 -9 15 8 27
-10 13 -19 -5 -3 -10 -12 -10 -18 0 -7 4 -6 10 3 5 8 10 10 10 4 0 -5 -5 -15
-12 -22 -9 -9 -9 -12 0 -12 7 0 12 -5 12 -11 0 -5 -4 -8 -8 -5 -5 3 -9 -1 -9
-9 0 -8 4 -15 8 -15 9 0 6 -26 -4 -36 -4 -4 -7 -12 -7 -18 0 -6 5 -4 10 4 8
11 9 9 6 -10 -3 -14 -5 -26 -7 -27 -1 -3 -5 -15 -8 -29 0 -4 -8 -1 -16 6 -13
11 -14 10 -9 -5 5 -13 4 -16 -4 -11 -8 5 -12 0 -12 -13 0 -12 3 -20 8 -20 20
3 32 -3 32 -17 0 -9 -5 -12 -12 -8 -7 4 -8 3 -4 -5 5 -8 12 -9 20 -2 8 7 12 4
13 -10 1 -11 -2 -17 -6 -15 -4 3 -8 -1 -8 -9 0 -8 4 -15 9 -15 4 0 8 -5 8 -11
0 -5 -6 -7 -13 -3 -8 5 -8 2 2 -9 10 -13 10 -17 1 -17 -8 0 -9 -4 -3 -12 17
-23 10 -53 -12 -50 -16 2 -17 1 -5 -7 8 -5 17 -8 22 -5 4 3 7 -6 6 -18 -2 -47
2 -69 12 -63 5 3 10 -2 10 -11 0 -10 3 -14 7 -11 3 4 12 2 20 -4 10 -9 13 -8
13 1 0 10 3 10 15 0 9 -7 18 -10 22 -6 3 3 0 6 -8 6 -12 0 -11 2 1 10 13 9 13
11 0 19 -8 5 -18 7 -22 5 -5 -3 -11 2 -14 10 -3 9 -10 13 -15 10 -6 -3 -7 6
-4 23 5 21 4 24 -4 13 -6 -8 -11 -10 -11 -4 0 5 5 15 12 22 9 9 9 12 0 12 -7
0 -12 5 -12 11 0 5 4 8 8 5 5 -3 9 1 9 9 0 8 -4 15 -9 15 -4 0 -8 5 -8 11 0 5
4 8 8 5 5 -3 9 1 9 9 0 8 -4 15 -9 15 -4 0 -8 5 -8 11 0 5 6 7 13 3 9 -5 9 -4
0 6 -10 11 -9 16 5 27 11 9 12 12 3 11 -7 -2 -16 3 -18 10 -3 6 0 12 6 12 6 0
11 5 11 11 0 5 -4 8 -9 5 -13 -9 -20 16 -10 35 5 9 6 27 4 40 -3 13 1 26 7 30
9 6 9 11 -1 22 -8 11 -9 17 -1 22 6 3 7 11 4 17 -4 5 -8 26 -10 45 -3 31 -1
33 14 22 16 -12 16 -12 1 5 -13 14 -14 22 -5 42 10 22 40 41 59 36 4 -1 7 5 7
13 0 8 -6 15 -14 15 -8 0 -17 6 -19 13 -4 9 -6 9 -6 -2z"/>
<path d="M1170 997 c0 -7 9 -18 21 -25 14 -9 19 -10 14 -2 -6 9 -2 9 14 1 11
-7 21 -14 21 -17 0 -3 -4 -2 -10 1 -6 3 -7 -1 -4 -9 3 -9 9 -14 13 -11 4 2 8
-2 8 -10 0 -8 -5 -12 -10 -8 -5 3 -4 -4 2 -15 7 -14 8 -23 1 -27 -5 -3 -10
-12 -10 -18 0 -8 3 -7 9 2 6 9 8 5 7 -15 -1 -16 -5 -35 -9 -41 -5 -7 -4 -13 2
-13 5 0 8 -12 7 -27 -2 -16 0 -37 4 -48 5 -12 2 -31 -7 -49 -8 -15 -10 -26 -5
-22 11 6 9 -80 -1 -91 -4 -3 -7 -11 -7 -17 0 -6 4 -5 9 3 6 9 8 5 7 -15 -1
-16 -5 -35 -9 -41 -5 -7 -4 -13 2 -13 5 0 8 -8 6 -17 -2 -10 -4 -21 -4 -25 -1
-4 -8 -5 -16 -2 -10 4 -15 0 -15 -11 0 -9 -4 -14 -8 -11 -4 2 -14 1 -22 -4
-11 -7 -11 -11 2 -24 9 -8 18 -13 21 -10 5 5 29 11 50 13 5 1 5 6 2 11 -3 6
-2 10 2 10 5 0 14 9 21 21 11 17 11 20 0 13 -7 -4 -4 3 6 15 14 15 15 20 5 16
-10 -4 -14 1 -14 18 1 13 4 28 8 34 4 7 3 15 -3 18 -7 4 -7 12 -2 18 10 14 10
27 -1 44 -4 6 -3 14 2 18 6 3 8 11 5 18 -2 7 3 21 12 32 8 11 12 13 8 5 -7
-13 -5 -13 8 -2 9 7 16 22 15 32 -1 15 -4 16 -14 8 -11 -8 -12 -7 -7 8 4 10 4
16 -1 12 -4 -4 -14 -3 -22 3 -11 10 -11 16 3 36 8 14 13 27 10 31 -3 3 -6 0
-6 -6 0 -7 -5 -12 -10 -12 -7 0 -7 6 0 19 13 26 13 34 -2 25 -10 -6 -10 -4 0
8 9 12 10 18 2 23 -6 4 -7 12 -2 18 7 11 9 32 2 40 -2 2 -6 28 -12 74 -1 7 -5
10 -10 7 -4 -3 -8 0 -8 5 0 6 -18 11 -40 11 -25 0 -40 -5 -40 -13z"/>
<path d="M740 989 c0 -7 -3 -9 -6 -6 -9 8 -44 -11 -44 -24 0 -6 4 -8 9 -5 5 4
7 -3 4 -13 -3 -13 -11 -18 -21 -15 -16 5 -16 5 -1 -5 14 -9 17 -31 18 -121 0
-85 -2 -109 -12 -103 -9 5 -9 3 -2 -8 12 -17 13 -39 1 -58 -6 -10 -5 -12 2 -7
8 5 12 -2 12 -18 0 -14 -4 -26 -10 -26 -5 0 -7 8 -4 18 5 14 4 15 -5 2 -8 -11
-7 -18 4 -26 10 -7 14 -24 11 -52 -2 -27 2 -46 11 -53 16 -14 20 -11 25 16 1
11 8 23 13 27 6 5 5 8 -2 8 -7 0 -13 5 -13 11 0 5 4 8 8 5 5 -3 9 1 9 9 0 8
-3 12 -7 10 -4 -3 -7 11 -6 29 1 28 3 32 15 23 12 -10 13 -9 4 8 -10 19 -8 20
40 22 36 1 46 -2 36 -9 -11 -7 -9 -8 6 -3 34 11 40 10 37 -5 -2 -12 0 -12 11
2 9 12 17 14 30 6 10 -5 15 -13 12 -18 -3 -5 0 -12 6 -16 8 -4 9 -3 5 4 -4 7
-2 12 3 12 6 0 11 -7 11 -15 0 -8 6 -15 13 -15 8 0 7 -4 -3 -10 -13 -8 -13
-10 1 -10 9 0 23 -8 30 -17 12 -16 12 -17 -1 -8 -9 6 -5 1 7 -11 13 -11 22
-27 20 -35 -2 -8 -2 -10 1 -6 2 4 11 2 19 -5 22 -18 46 -19 39 -1 -3 8 -6 19
-6 24 0 6 -6 7 -12 3 -8 -5 -8 -2 1 10 12 15 12 17 0 14 -8 -2 -13 3 -11 10 1
6 -4 11 -10 10 -7 -2 -12 5 -11 15 0 10 -1 16 -4 13 -11 -10 -42 35 -36 51 4
11 2 14 -5 9 -8 -5 -10 -2 -6 9 5 12 9 13 21 4 11 -10 13 -10 11 1 -2 7 7 19
20 25 25 13 46 32 22 21 -9 -5 -8 -2 2 7 10 8 15 17 11 20 -3 4 -1 7 4 7 6 0
10 11 9 25 -2 13 0 22 5 20 9 -6 6 52 -4 61 -4 4 -1 14 6 22 9 13 9 14 0 8 -7
-4 -13 -3 -13 1 0 5 6 15 13 22 10 11 9 12 -1 6 -15 -8 -44 24 -35 39 4 5 1 6
-5 2 -7 -4 -12 -2 -12 4 0 6 -4 9 -9 6 -5 -4 -11 -1 -13 6 -2 6 -15 13 -28 15
-13 2 -27 8 -31 14 -4 8 -8 7 -11 -1 -3 -9 -9 -8 -21 4 -9 10 -17 13 -17 8 0
-12 -63 -10 -72 3 -5 6 -8 6 -8 -2 0 -6 -8 -10 -17 -9 -10 2 -21 -1 -24 -6 -3
-5 -13 -2 -23 7 -10 11 -16 12 -16 4z m18 -58 c-9 -11 -5 -10 9 2 17 15 35 18
95 16 77 -3 129 -21 163 -59 16 -18 17 -23 5 -30 -13 -8 -12 -10 3 -10 20 0
21 -4 6 -32 -8 -15 -8 -19 0 -14 6 4 11 2 11 -3 0 -6 -4 -11 -10 -11 -5 0 -14
-10 -20 -22 -10 -21 -10 -21 3 -5 21 25 28 21 15 -8 -6 -14 -17 -24 -24 -21
-8 3 -10 -3 -6 -17 3 -12 1 -19 -3 -15 -4 4 -13 1 -19 -6 -6 -8 -22 -17 -36
-21 -19 -5 -21 -4 -10 4 8 6 10 11 4 11 -5 0 -15 -5 -22 -12 -16 -16 -95 -19
-104 -4 -6 8 -8 8 -8 -1 0 -8 -13 -11 -37 -9 l-38 4 -1 76 c-1 41 3 73 7 70 5
-3 9 -1 9 5 0 5 -6 12 -12 14 -10 4 -9 8 2 16 8 6 10 11 4 11 -6 0 -9 16 -8
38 3 50 2 49 19 49 12 0 12 -3 3 -16z"/>
<path d="M980 900 c35 -24 54 -31 30 -11 -14 11 -29 21 -35 21 -5 0 -3 -5 5
-10z"/>
<path d="M745 689 c-11 -16 -1 -19 13 -3 7 8 8 14 3 14 -5 0 -13 -5 -16 -11z"/>
<path d="M830 679 c0 -5 5 -7 10 -4 6 3 10 8 10 11 0 2 -4 4 -10 4 -5 0 -10
-5 -10 -11z"/>
<path d="M330 961 c0 -9 -6 -23 -12 -30 -11 -11 -10 -12 1 -6 9 5 12 3 9 -6
-3 -8 -11 -13 -17 -11 -7 1 -10 -2 -6 -8 3 -6 11 -8 16 -5 13 9 11 -9 -3 -24
-11 -11 -10 -12 1 -6 9 5 12 3 9 -6 -3 -8 -12 -13 -19 -11 -9 2 -7 -4 5 -17
19 -21 15 -58 -5 -45 -8 4 -9 3 -5 -5 4 -6 12 -9 17 -6 13 9 11 -9 -3 -24 -11
-11 -10 -12 1 -6 9 5 12 3 9 -6 -3 -8 -12 -13 -19 -11 -9 2 -7 -4 5 -17 19
-21 15 -58 -5 -45 -8 4 -9 3 -5 -5 4 -6 12 -9 17 -6 13 9 11 -9 -3 -24 -11
-11 -10 -12 1 -6 9 5 12 3 9 -6 -3 -8 -12 -13 -19 -11 -9 2 -7 -4 5 -17 19
-21 15 -58 -5 -45 -8 4 -9 3 -5 -5 4 -6 12 -9 17 -6 13 9 11 -9 -3 -24 -10
-11 -10 -13 0 -7 6 4 12 2 12 -3 0 -6 -5 -11 -12 -11 -6 0 -1 -9 12 -20 27
-23 34 -25 25 -7 -4 6 0 4 8 -6 11 -13 16 -14 20 -5 5 14 74 17 95 4 7 -4 12
-3 12 3 0 7 8 7 25 1 18 -7 25 -6 25 3 0 8 4 7 10 -3 9 -13 10 -13 10 0 0 12
2 12 9 2 6 -10 10 -9 14 7 4 18 1 21 -25 21 -21 0 -27 4 -22 13 6 9 4 9 -7 1
-8 -6 -24 -11 -37 -12 -21 -1 -22 1 -10 16 11 15 10 15 -8 0 -24 -21 -38 -23
-28 -5 6 10 4 10 -7 0 -17 -16 -43 -17 -33 -1 5 7 3 8 -7 2 -26 -16 -34 -12
-36 18 -1 18 2 26 8 22 8 -4 7 0 0 14 -13 25 -14 45 -2 37 5 -3 13 -1 16 5 4
6 1 9 -6 8 -10 -2 -14 24 -15 115 -1 64 2 115 6 112 5 -3 12 -1 15 5 4 6 1 9
-6 8 -10 -2 -14 14 -14 63 0 55 -3 65 -17 66 -11 1 -18 -5 -18 -16z"/>
<path d="M371 934 c0 -11 3 -14 6 -6 3 7 2 16 -1 19 -3 4 -6 -2 -5 -13z"/>
<path d="M676 813 c-6 -14 -5 -15 5 -6 7 7 10 15 7 18 -3 3 -9 -2 -12 -12z"/>
<path d="M675 720 c-3 -5 -1 -10 4 -10 6 0 11 5 11 10 0 6 -2 10 -4 10 -3 0
-8 -4 -11 -10z"/>
<path d="M1290 646 c0 -2 7 -7 16 -10 8 -3 12 -2 9 4 -6 10 -25 14 -25 6z"/>
<path d="M376 518 c3 -5 10 -6 15 -3 13 9 11 12 -6 12 -8 0 -12 -4 -9 -9z"/>
<path d="M1286 497 c3 -10 9 -15 12 -12 3 3 0 11 -7 18 -10 9 -11 8 -5 -6z"/>
</g>
</svg>
